<svg xmlns="http://www.w3.org/2000/svg" viewBox="0 0 960 460" width="960" height="460">
<defs><radialGradient id="glowA" cx="50%" cy="50%" r="50%"><stop offset="0%" stop-color="#B4E01B" stop-opacity="0.30"/><stop offset="100%" stop-color="#B4E01B" stop-opacity="0"/></radialGradient><radialGradient id="glowB" cx="50%" cy="50%" r="50%"><stop offset="0%" stop-color="#17181A" stop-opacity="0.10"/><stop offset="100%" stop-color="#17181A" stop-opacity="0"/></radialGradient></defs>
<rect width="960" height="460" fill="#F1F1EB"/>
<circle cx="312" cy="127" r="528" fill="url(#glowA)"/>
<circle cx="754" cy="341" r="432" fill="url(#glowB)"/>
<g opacity="0.4">
<circle cx="15" cy="15" r="1" fill="#B8B8AE"/>
<circle cx="15" cy="45" r="1" fill="#B8B8AE"/>
<circle cx="15" cy="135" r="1" fill="#B8B8AE"/>
<circle cx="15" cy="195" r="1" fill="#B8B8AE"/>
<circle cx="15" cy="315" r="1" fill="#B8B8AE"/>
<circle cx="15" cy="345" r="1" fill="#B8B8AE"/>
<circle cx="15" cy="375" r="1" fill="#B8B8AE"/>
<circle cx="15" cy="405" r="1" fill="#B8B8AE"/>
<circle cx="15" cy="435" r="1" fill="#B8B8AE"/>
<circle cx="45" cy="15" r="1" fill="#B8B8AE"/>
<circle cx="45" cy="75" r="1" fill="#B8B8AE"/>
<circle cx="45" cy="105" r="1" fill="#B8B8AE"/>
<circle cx="45" cy="135" r="1" fill="#B8B8AE"/>
<circle cx="45" cy="195" r="1" fill="#B8B8AE"/>
<circle cx="45" cy="225" r="1" fill="#B8B8AE"/>
<circle cx="45" cy="255" r="1" fill="#B8B8AE"/>
<circle cx="45" cy="285" r="1" fill="#B8B8AE"/>
<circle cx="45" cy="345" r="1" fill="#B8B8AE"/>
<circle cx="45" cy="375" r="1" fill="#B8B8AE"/>
<circle cx="45" cy="435" r="1" fill="#B8B8AE"/>
<circle cx="75" cy="15" r="1" fill="#B8B8AE"/>
<circle cx="75" cy="105" r="1" fill="#B8B8AE"/>
<circle cx="75" cy="135" r="1" fill="#B8B8AE"/>
<circle cx="75" cy="195" r="1" fill="#B8B8AE"/>
<circle cx="75" cy="225" r="1" fill="#B8B8AE"/>
<circle cx="75" cy="255" r="1" fill="#B8B8AE"/>
<circle cx="75" cy="285" r="1" fill="#B8B8AE"/>
<circle cx="75" cy="345" r="1" fill="#B8B8AE"/>
<circle cx="75" cy="375" r="1" fill="#B8B8AE"/>
<circle cx="75" cy="405" r="1" fill="#B8B8AE"/>
<circle cx="75" cy="435" r="1" fill="#B8B8AE"/>
<circle cx="105" cy="15" r="1" fill="#B8B8AE"/>
<circle cx="105" cy="45" r="1" fill="#B8B8AE"/>
<circle cx="105" cy="75" r="1" fill="#B8B8AE"/>
<circle cx="105" cy="105" r="1" fill="#B8B8AE"/>
<circle cx="105" cy="165" r="1" fill="#B8B8AE"/>
<circle cx="105" cy="195" r="1" fill="#B8B8AE"/>
<circle cx="105" cy="255" r="1" fill="#B8B8AE"/>
<circle cx="105" cy="285" r="1" fill="#B8B8AE"/>
<circle cx="105" cy="345" r="1" fill="#B8B8AE"/>
<circle cx="105" cy="375" r="1" fill="#B8B8AE"/>
<circle cx="105" cy="405" r="1" fill="#B8B8AE"/>
<circle cx="105" cy="435" r="1" fill="#B8B8AE"/>
<circle cx="135" cy="105" r="1" fill="#B8B8AE"/>
<circle cx="135" cy="135" r="1" fill="#B8B8AE"/>
<circle cx="135" cy="165" r="1" fill="#B8B8AE"/>
<circle cx="135" cy="225" r="1" fill="#B8B8AE"/>
<circle cx="135" cy="255" r="1" fill="#B8B8AE"/>
<circle cx="135" cy="285" r="1" fill="#B8B8AE"/>
<circle cx="135" cy="315" r="1" fill="#B8B8AE"/>
<circle cx="135" cy="345" r="1" fill="#B8B8AE"/>
<circle cx="135" cy="405" r="1" fill="#B8B8AE"/>
<circle cx="165" cy="15" r="1" fill="#B8B8AE"/>
<circle cx="165" cy="75" r="1" fill="#B8B8AE"/>
<circle cx="165" cy="165" r="1" fill="#B8B8AE"/>
<circle cx="165" cy="225" r="1" fill="#B8B8AE"/>
<circle cx="165" cy="345" r="1" fill="#B8B8AE"/>
<circle cx="165" cy="375" r="1" fill="#B8B8AE"/>
<circle cx="165" cy="405" r="1" fill="#B8B8AE"/>
<circle cx="165" cy="435" r="1" fill="#B8B8AE"/>
<circle cx="195" cy="15" r="1" fill="#B8B8AE"/>
<circle cx="195" cy="165" r="1" fill="#B8B8AE"/>
<circle cx="195" cy="195" r="1" fill="#B8B8AE"/>
<circle cx="195" cy="225" r="1" fill="#B8B8AE"/>
<circle cx="195" cy="255" r="1" fill="#B8B8AE"/>
<circle cx="195" cy="315" r="1" fill="#B8B8AE"/>
<circle cx="195" cy="375" r="1" fill="#B8B8AE"/>
<circle cx="195" cy="405" r="1" fill="#B8B8AE"/>
<circle cx="225" cy="15" r="1" fill="#B8B8AE"/>
<circle cx="225" cy="75" r="1" fill="#B8B8AE"/>
<circle cx="225" cy="135" r="1" fill="#B8B8AE"/>
<circle cx="225" cy="165" r="1" fill="#B8B8AE"/>
<circle cx="225" cy="435" r="1" fill="#B8B8AE"/>
<circle cx="255" cy="15" r="1" fill="#B8B8AE"/>
<circle cx="255" cy="105" r="1" fill="#B8B8AE"/>
<circle cx="255" cy="165" r="1" fill="#B8B8AE"/>
<circle cx="255" cy="195" r="1" fill="#B8B8AE"/>
<circle cx="255" cy="225" r="1" fill="#B8B8AE"/>
<circle cx="255" cy="255" r="1" fill="#B8B8AE"/>
<circle cx="255" cy="285" r="1" fill="#B8B8AE"/>
<circle cx="255" cy="315" r="1" fill="#B8B8AE"/>
<circle cx="255" cy="375" r="1" fill="#B8B8AE"/>
<circle cx="255" cy="435" r="1" fill="#B8B8AE"/>
<circle cx="285" cy="45" r="1" fill="#B8B8AE"/>
<circle cx="285" cy="135" r="1" fill="#B8B8AE"/>
<circle cx="285" cy="195" r="1" fill="#B8B8AE"/>
<circle cx="285" cy="225" r="1" fill="#B8B8AE"/>
<circle cx="285" cy="255" r="1" fill="#B8B8AE"/>
<circle cx="285" cy="285" r="1" fill="#B8B8AE"/>
<circle cx="315" cy="15" r="1" fill="#B8B8AE"/>
<circle cx="315" cy="75" r="1" fill="#B8B8AE"/>
<circle cx="315" cy="105" r="1" fill="#B8B8AE"/>
<circle cx="315" cy="195" r="1" fill="#B8B8AE"/>
<circle cx="315" cy="225" r="1" fill="#B8B8AE"/>
<circle cx="315" cy="255" r="1" fill="#B8B8AE"/>
<circle cx="315" cy="345" r="1" fill="#B8B8AE"/>
<circle cx="315" cy="375" r="1" fill="#B8B8AE"/>
<circle cx="345" cy="15" r="1" fill="#B8B8AE"/>
<circle cx="345" cy="135" r="1" fill="#B8B8AE"/>
<circle cx="345" cy="195" r="1" fill="#B8B8AE"/>
<circle cx="345" cy="315" r="1" fill="#B8B8AE"/>
<circle cx="345" cy="345" r="1" fill="#B8B8AE"/>
<circle cx="345" cy="375" r="1" fill="#B8B8AE"/>
<circle cx="375" cy="105" r="1" fill="#B8B8AE"/>
<circle cx="375" cy="165" r="1" fill="#B8B8AE"/>
<circle cx="375" cy="255" r="1" fill="#B8B8AE"/>
<circle cx="375" cy="285" r="1" fill="#B8B8AE"/>
<circle cx="375" cy="375" r="1" fill="#B8B8AE"/>
<circle cx="375" cy="405" r="1" fill="#B8B8AE"/>
<circle cx="375" cy="435" r="1" fill="#B8B8AE"/>
<circle cx="405" cy="15" r="1" fill="#B8B8AE"/>
<circle cx="405" cy="45" r="1" fill="#B8B8AE"/>
<circle cx="405" cy="75" r="1" fill="#B8B8AE"/>
<circle cx="405" cy="105" r="1" fill="#B8B8AE"/>
<circle cx="405" cy="135" r="1" fill="#B8B8AE"/>
<circle cx="405" cy="225" r="1" fill="#B8B8AE"/>
<circle cx="405" cy="255" r="1" fill="#B8B8AE"/>
<circle cx="405" cy="285" r="1" fill="#B8B8AE"/>
<circle cx="405" cy="375" r="1" fill="#B8B8AE"/>
<circle cx="435" cy="15" r="1" fill="#B8B8AE"/>
<circle cx="435" cy="165" r="1" fill="#B8B8AE"/>
<circle cx="435" cy="195" r="1" fill="#B8B8AE"/>
<circle cx="435" cy="315" r="1" fill="#B8B8AE"/>
<circle cx="435" cy="345" r="1" fill="#B8B8AE"/>
<circle cx="435" cy="375" r="1" fill="#B8B8AE"/>
<circle cx="435" cy="435" r="1" fill="#B8B8AE"/>
<circle cx="465" cy="15" r="1" fill="#B8B8AE"/>
<circle cx="465" cy="45" r="1" fill="#B8B8AE"/>
<circle cx="465" cy="105" r="1" fill="#B8B8AE"/>
<circle cx="465" cy="195" r="1" fill="#B8B8AE"/>
<circle cx="465" cy="255" r="1" fill="#B8B8AE"/>
<circle cx="465" cy="375" r="1" fill="#B8B8AE"/>
<circle cx="465" cy="405" r="1" fill="#B8B8AE"/>
<circle cx="495" cy="75" r="1" fill="#B8B8AE"/>
<circle cx="495" cy="135" r="1" fill="#B8B8AE"/>
<circle cx="495" cy="225" r="1" fill="#B8B8AE"/>
<circle cx="495" cy="255" r="1" fill="#B8B8AE"/>
<circle cx="495" cy="285" r="1" fill="#B8B8AE"/>
<circle cx="495" cy="315" r="1" fill="#B8B8AE"/>
<circle cx="495" cy="345" r="1" fill="#B8B8AE"/>
<circle cx="495" cy="375" r="1" fill="#B8B8AE"/>
<circle cx="495" cy="435" r="1" fill="#B8B8AE"/>
<circle cx="525" cy="15" r="1" fill="#B8B8AE"/>
<circle cx="525" cy="105" r="1" fill="#B8B8AE"/>
<circle cx="525" cy="165" r="1" fill="#B8B8AE"/>
<circle cx="525" cy="225" r="1" fill="#B8B8AE"/>
<circle cx="525" cy="255" r="1" fill="#B8B8AE"/>
<circle cx="525" cy="405" r="1" fill="#B8B8AE"/>
<circle cx="525" cy="435" r="1" fill="#B8B8AE"/>
<circle cx="555" cy="15" r="1" fill="#B8B8AE"/>
<circle cx="555" cy="45" r="1" fill="#B8B8AE"/>
<circle cx="555" cy="105" r="1" fill="#B8B8AE"/>
<circle cx="555" cy="225" r="1" fill="#B8B8AE"/>
<circle cx="555" cy="255" r="1" fill="#B8B8AE"/>
<circle cx="555" cy="345" r="1" fill="#B8B8AE"/>
<circle cx="555" cy="375" r="1" fill="#B8B8AE"/>
<circle cx="555" cy="405" r="1" fill="#B8B8AE"/>
<circle cx="555" cy="435" r="1" fill="#B8B8AE"/>
<circle cx="585" cy="105" r="1" fill="#B8B8AE"/>
<circle cx="585" cy="165" r="1" fill="#B8B8AE"/>
<circle cx="585" cy="195" r="1" fill="#B8B8AE"/>
<circle cx="585" cy="225" r="1" fill="#B8B8AE"/>
<circle cx="585" cy="255" r="1" fill="#B8B8AE"/>
<circle cx="585" cy="345" r="1" fill="#B8B8AE"/>
<circle cx="585" cy="375" r="1" fill="#B8B8AE"/>
<circle cx="585" cy="435" r="1" fill="#B8B8AE"/>
<circle cx="615" cy="45" r="1" fill="#B8B8AE"/>
<circle cx="615" cy="75" r="1" fill="#B8B8AE"/>
<circle cx="615" cy="105" r="1" fill="#B8B8AE"/>
<circle cx="615" cy="135" r="1" fill="#B8B8AE"/>
<circle cx="615" cy="255" r="1" fill="#B8B8AE"/>
<circle cx="615" cy="285" r="1" fill="#B8B8AE"/>
<circle cx="615" cy="375" r="1" fill="#B8B8AE"/>
<circle cx="615" cy="435" r="1" fill="#B8B8AE"/>
<circle cx="645" cy="15" r="1" fill="#B8B8AE"/>
<circle cx="645" cy="225" r="1" fill="#B8B8AE"/>
<circle cx="645" cy="255" r="1" fill="#B8B8AE"/>
<circle cx="645" cy="315" r="1" fill="#B8B8AE"/>
<circle cx="645" cy="345" r="1" fill="#B8B8AE"/>
<circle cx="645" cy="375" r="1" fill="#B8B8AE"/>
<circle cx="645" cy="435" r="1" fill="#B8B8AE"/>
<circle cx="675" cy="75" r="1" fill="#B8B8AE"/>
<circle cx="675" cy="165" r="1" fill="#B8B8AE"/>
<circle cx="675" cy="195" r="1" fill="#B8B8AE"/>
<circle cx="675" cy="315" r="1" fill="#B8B8AE"/>
<circle cx="675" cy="345" r="1" fill="#B8B8AE"/>
<circle cx="705" cy="15" r="1" fill="#B8B8AE"/>
<circle cx="705" cy="45" r="1" fill="#B8B8AE"/>
<circle cx="705" cy="105" r="1" fill="#B8B8AE"/>
<circle cx="705" cy="285" r="1" fill="#B8B8AE"/>
<circle cx="705" cy="435" r="1" fill="#B8B8AE"/>
<circle cx="735" cy="75" r="1" fill="#B8B8AE"/>
<circle cx="735" cy="135" r="1" fill="#B8B8AE"/>
<circle cx="735" cy="195" r="1" fill="#B8B8AE"/>
<circle cx="735" cy="225" r="1" fill="#B8B8AE"/>
<circle cx="735" cy="375" r="1" fill="#B8B8AE"/>
<circle cx="735" cy="405" r="1" fill="#B8B8AE"/>
<circle cx="765" cy="15" r="1" fill="#B8B8AE"/>
<circle cx="765" cy="165" r="1" fill="#B8B8AE"/>
<circle cx="765" cy="225" r="1" fill="#B8B8AE"/>
<circle cx="765" cy="345" r="1" fill="#B8B8AE"/>
<circle cx="765" cy="435" r="1" fill="#B8B8AE"/>
<circle cx="795" cy="75" r="1" fill="#B8B8AE"/>
<circle cx="795" cy="135" r="1" fill="#B8B8AE"/>
<circle cx="795" cy="225" r="1" fill="#B8B8AE"/>
<circle cx="795" cy="255" r="1" fill="#B8B8AE"/>
<circle cx="795" cy="285" r="1" fill="#B8B8AE"/>
<circle cx="795" cy="315" r="1" fill="#B8B8AE"/>
<circle cx="795" cy="405" r="1" fill="#B8B8AE"/>
<circle cx="825" cy="15" r="1" fill="#B8B8AE"/>
<circle cx="825" cy="45" r="1" fill="#B8B8AE"/>
<circle cx="825" cy="105" r="1" fill="#B8B8AE"/>
<circle cx="825" cy="135" r="1" fill="#B8B8AE"/>
<circle cx="825" cy="255" r="1" fill="#B8B8AE"/>
<circle cx="825" cy="345" r="1" fill="#B8B8AE"/>
<circle cx="825" cy="375" r="1" fill="#B8B8AE"/>
<circle cx="825" cy="435" r="1" fill="#B8B8AE"/>
<circle cx="855" cy="15" r="1" fill="#B8B8AE"/>
<circle cx="855" cy="165" r="1" fill="#B8B8AE"/>
<circle cx="855" cy="315" r="1" fill="#B8B8AE"/>
<circle cx="855" cy="405" r="1" fill="#B8B8AE"/>
<circle cx="855" cy="435" r="1" fill="#B8B8AE"/>
<circle cx="885" cy="15" r="1" fill="#B8B8AE"/>
<circle cx="885" cy="135" r="1" fill="#B8B8AE"/>
<circle cx="885" cy="195" r="1" fill="#B8B8AE"/>
<circle cx="885" cy="285" r="1" fill="#B8B8AE"/>
<circle cx="885" cy="345" r="1" fill="#B8B8AE"/>
<circle cx="885" cy="375" r="1" fill="#B8B8AE"/>
<circle cx="915" cy="15" r="1" fill="#B8B8AE"/>
<circle cx="915" cy="45" r="1" fill="#B8B8AE"/>
<circle cx="915" cy="75" r="1" fill="#B8B8AE"/>
<circle cx="915" cy="255" r="1" fill="#B8B8AE"/>
<circle cx="915" cy="375" r="1" fill="#B8B8AE"/>
<circle cx="915" cy="405" r="1" fill="#B8B8AE"/>
<circle cx="945" cy="15" r="1" fill="#B8B8AE"/>
<circle cx="945" cy="45" r="1" fill="#B8B8AE"/>
<circle cx="945" cy="165" r="1" fill="#B8B8AE"/>
<circle cx="945" cy="195" r="1" fill="#B8B8AE"/>
<circle cx="945" cy="225" r="1" fill="#B8B8AE"/>
<circle cx="945" cy="315" r="1" fill="#B8B8AE"/>
<circle cx="945" cy="375" r="1" fill="#B8B8AE"/>
<circle cx="945" cy="435" r="1" fill="#B8B8AE"/>
</g>
<line x1="95.0" y1="396.5" x2="330.9" y2="383.2" stroke="#17181A" stroke-opacity="0.16" stroke-width="1.2"/>
<line x1="95.0" y1="396.5" x2="298.8" y2="232.4" stroke="#17181A" stroke-opacity="0.16" stroke-width="1.2"/>
<line x1="95.0" y1="396.5" x2="365.5" y2="390.7" stroke="#17181A" stroke-opacity="0.16" stroke-width="1.2"/>
<line x1="718.2" y1="176.2" x2="655.2" y2="183.0" stroke="#17181A" stroke-opacity="0.16" stroke-width="1.2"/>
<line x1="718.2" y1="176.2" x2="645.1" y2="259.4" stroke="#17181A" stroke-opacity="0.16" stroke-width="1.2"/>
<line x1="718.2" y1="176.2" x2="862.9" y2="199.6" stroke="#17181A" stroke-opacity="0.16" stroke-width="1.2"/>
<line x1="645.1" y1="259.4" x2="655.2" y2="183.0" stroke="#17181A" stroke-opacity="0.16" stroke-width="1.2"/>
<line x1="645.1" y1="259.4" x2="655.6" y2="365.7" stroke="#17181A" stroke-opacity="0.16" stroke-width="1.2"/>
<line x1="645.1" y1="259.4" x2="718.2" y2="176.2" stroke="#17181A" stroke-opacity="0.16" stroke-width="1.2"/>
<line x1="689.7" y1="407.0" x2="655.6" y2="365.7" stroke="#17181A" stroke-opacity="0.16" stroke-width="1.2"/>
<line x1="689.7" y1="407.0" x2="645.1" y2="259.4" stroke="#17181A" stroke-opacity="0.16" stroke-width="1.2"/>
<line x1="689.7" y1="407.0" x2="898.3" y2="359.3" stroke="#17181A" stroke-opacity="0.16" stroke-width="1.2"/>
<line x1="298.8" y1="232.4" x2="305.0" y2="155.9" stroke="#17181A" stroke-opacity="0.16" stroke-width="1.2"/>
<line x1="298.8" y1="232.4" x2="375.9" y2="118.1" stroke="#17181A" stroke-opacity="0.16" stroke-width="1.2"/>
<line x1="298.8" y1="232.4" x2="444.2" y2="217.0" stroke="#17181A" stroke-opacity="0.16" stroke-width="1.2"/>
<line x1="206.6" y1="74.7" x2="194.0" y2="109.8" stroke="#17181A" stroke-opacity="0.16" stroke-width="1.2"/>
<line x1="206.6" y1="74.7" x2="170.3" y2="33.7" stroke="#17181A" stroke-opacity="0.16" stroke-width="1.2"/>
<line x1="206.6" y1="74.7" x2="305.0" y2="155.9" stroke="#17181A" stroke-opacity="0.16" stroke-width="1.2"/>
<line x1="365.5" y1="390.7" x2="330.9" y2="383.2" stroke="#17181A" stroke-opacity="0.16" stroke-width="1.2"/>
<line x1="365.5" y1="390.7" x2="458.7" y2="348.3" stroke="#17181A" stroke-opacity="0.16" stroke-width="1.2"/>
<line x1="365.5" y1="390.7" x2="298.8" y2="232.4" stroke="#17181A" stroke-opacity="0.16" stroke-width="1.2"/>
<line x1="305.0" y1="155.9" x2="298.8" y2="232.4" stroke="#17181A" stroke-opacity="0.16" stroke-width="1.2"/>
<line x1="305.0" y1="155.9" x2="375.9" y2="118.1" stroke="#17181A" stroke-opacity="0.16" stroke-width="1.2"/>
<line x1="305.0" y1="155.9" x2="194.0" y2="109.8" stroke="#17181A" stroke-opacity="0.16" stroke-width="1.2"/>
<line x1="898.3" y1="359.3" x2="862.9" y2="199.6" stroke="#17181A" stroke-opacity="0.16" stroke-width="1.2"/>
<line x1="898.3" y1="359.3" x2="877.0" y2="173.4" stroke="#17181A" stroke-opacity="0.16" stroke-width="1.2"/>
<line x1="898.3" y1="359.3" x2="689.7" y2="407.0" stroke="#17181A" stroke-opacity="0.16" stroke-width="1.2"/>
<line x1="384.3" y1="41.0" x2="375.9" y2="118.1" stroke="#17181A" stroke-opacity="0.16" stroke-width="1.2"/>
<line x1="384.3" y1="41.0" x2="457.1" y2="109.7" stroke="#17181A" stroke-opacity="0.16" stroke-width="1.2"/>
<line x1="384.3" y1="41.0" x2="305.0" y2="155.9" stroke="#17181A" stroke-opacity="0.16" stroke-width="1.2"/>
<line x1="457.1" y1="109.7" x2="375.9" y2="118.1" stroke="#17181A" stroke-opacity="0.16" stroke-width="1.2"/>
<line x1="457.1" y1="109.7" x2="384.3" y2="41.0" stroke="#17181A" stroke-opacity="0.16" stroke-width="1.2"/>
<line x1="457.1" y1="109.7" x2="444.2" y2="217.0" stroke="#17181A" stroke-opacity="0.16" stroke-width="1.2"/>
<line x1="655.6" y1="365.7" x2="689.7" y2="407.0" stroke="#17181A" stroke-opacity="0.16" stroke-width="1.2"/>
<line x1="655.6" y1="365.7" x2="645.1" y2="259.4" stroke="#17181A" stroke-opacity="0.16" stroke-width="1.2"/>
<line x1="655.6" y1="365.7" x2="655.2" y2="183.0" stroke="#17181A" stroke-opacity="0.16" stroke-width="1.2"/>
<line x1="444.2" y1="217.0" x2="457.1" y2="109.7" stroke="#17181A" stroke-opacity="0.16" stroke-width="1.2"/>
<line x1="444.2" y1="217.0" x2="375.9" y2="118.1" stroke="#17181A" stroke-opacity="0.16" stroke-width="1.2"/>
<line x1="444.2" y1="217.0" x2="458.7" y2="348.3" stroke="#17181A" stroke-opacity="0.16" stroke-width="1.2"/>
<line x1="70.6" y1="53.1" x2="170.3" y2="33.7" stroke="#17181A" stroke-opacity="0.16" stroke-width="1.2"/>
<line x1="70.6" y1="53.1" x2="194.0" y2="109.8" stroke="#17181A" stroke-opacity="0.16" stroke-width="1.2"/>
<line x1="70.6" y1="53.1" x2="206.6" y2="74.7" stroke="#17181A" stroke-opacity="0.16" stroke-width="1.2"/>
<line x1="330.9" y1="383.2" x2="365.5" y2="390.7" stroke="#17181A" stroke-opacity="0.16" stroke-width="1.2"/>
<line x1="330.9" y1="383.2" x2="458.7" y2="348.3" stroke="#17181A" stroke-opacity="0.16" stroke-width="1.2"/>
<line x1="330.9" y1="383.2" x2="298.8" y2="232.4" stroke="#17181A" stroke-opacity="0.16" stroke-width="1.2"/>
<line x1="170.3" y1="33.7" x2="206.6" y2="74.7" stroke="#17181A" stroke-opacity="0.16" stroke-width="1.2"/>
<line x1="170.3" y1="33.7" x2="194.0" y2="109.8" stroke="#17181A" stroke-opacity="0.16" stroke-width="1.2"/>
<line x1="170.3" y1="33.7" x2="70.6" y2="53.1" stroke="#17181A" stroke-opacity="0.16" stroke-width="1.2"/>
<line x1="375.9" y1="118.1" x2="384.3" y2="41.0" stroke="#17181A" stroke-opacity="0.16" stroke-width="1.2"/>
<line x1="375.9" y1="118.1" x2="305.0" y2="155.9" stroke="#17181A" stroke-opacity="0.16" stroke-width="1.2"/>
<line x1="375.9" y1="118.1" x2="457.1" y2="109.7" stroke="#17181A" stroke-opacity="0.16" stroke-width="1.2"/>
<line x1="458.7" y1="348.3" x2="365.5" y2="390.7" stroke="#17181A" stroke-opacity="0.16" stroke-width="1.2"/>
<line x1="458.7" y1="348.3" x2="444.2" y2="217.0" stroke="#17181A" stroke-opacity="0.16" stroke-width="1.2"/>
<line x1="458.7" y1="348.3" x2="330.9" y2="383.2" stroke="#17181A" stroke-opacity="0.16" stroke-width="1.2"/>
<line x1="655.2" y1="183.0" x2="718.2" y2="176.2" stroke="#17181A" stroke-opacity="0.16" stroke-width="1.2"/>
<line x1="655.2" y1="183.0" x2="645.1" y2="259.4" stroke="#17181A" stroke-opacity="0.16" stroke-width="1.2"/>
<line x1="655.2" y1="183.0" x2="655.6" y2="365.7" stroke="#17181A" stroke-opacity="0.16" stroke-width="1.2"/>
<line x1="194.0" y1="109.8" x2="206.6" y2="74.7" stroke="#17181A" stroke-opacity="0.16" stroke-width="1.2"/>
<line x1="194.0" y1="109.8" x2="170.3" y2="33.7" stroke="#17181A" stroke-opacity="0.16" stroke-width="1.2"/>
<line x1="194.0" y1="109.8" x2="305.0" y2="155.9" stroke="#17181A" stroke-opacity="0.16" stroke-width="1.2"/>
<line x1="877.0" y1="173.4" x2="862.9" y2="199.6" stroke="#17181A" stroke-opacity="0.16" stroke-width="1.2"/>
<line x1="877.0" y1="173.4" x2="718.2" y2="176.2" stroke="#17181A" stroke-opacity="0.16" stroke-width="1.2"/>
<line x1="877.0" y1="173.4" x2="898.3" y2="359.3" stroke="#17181A" stroke-opacity="0.16" stroke-width="1.2"/>
<line x1="862.9" y1="199.6" x2="877.0" y2="173.4" stroke="#17181A" stroke-opacity="0.16" stroke-width="1.2"/>
<line x1="862.9" y1="199.6" x2="718.2" y2="176.2" stroke="#17181A" stroke-opacity="0.16" stroke-width="1.2"/>
<line x1="862.9" y1="199.6" x2="898.3" y2="359.3" stroke="#17181A" stroke-opacity="0.16" stroke-width="1.2"/>
<circle cx="95.0" cy="396.5" r="5.6" fill="none" stroke="#3A3A36" stroke-opacity="0.6" stroke-width="1.6"/>
<circle cx="718.2" cy="176.2" r="12.9" fill="#B4E01B"/>
<circle cx="645.1" cy="259.4" r="12.5" fill="#17181A"/>
<circle cx="689.7" cy="407.0" r="5.9" fill="none" stroke="#3A3A36" stroke-opacity="0.6" stroke-width="1.6"/>
<circle cx="298.8" cy="232.4" r="13.8" fill="#B4E01B"/>
<circle cx="206.6" cy="74.7" r="5.0" fill="none" stroke="#3A3A36" stroke-opacity="0.6" stroke-width="1.6"/>
<circle cx="365.5" cy="390.7" r="11.4" fill="#B4E01B"/>
<circle cx="305.0" cy="155.9" r="4.1" fill="none" stroke="#3A3A36" stroke-opacity="0.6" stroke-width="1.6"/>
<circle cx="898.3" cy="359.3" r="4.7" fill="none" stroke="#3A3A36" stroke-opacity="0.6" stroke-width="1.6"/>
<circle cx="384.3" cy="41.0" r="4.1" fill="none" stroke="#3A3A36" stroke-opacity="0.6" stroke-width="1.6"/>
<circle cx="457.1" cy="109.7" r="18.0" fill="#17181A"/>
<circle cx="655.6" cy="365.7" r="19.8" fill="#B4E01B"/>
<circle cx="444.2" cy="217.0" r="7.0" fill="none" stroke="#3A3A36" stroke-opacity="0.6" stroke-width="1.6"/>
<circle cx="70.6" cy="53.1" r="14.5" fill="#17181A"/>
<circle cx="330.9" cy="383.2" r="5.2" fill="none" stroke="#3A3A36" stroke-opacity="0.6" stroke-width="1.6"/>
<circle cx="170.3" cy="33.7" r="14.8" fill="#17181A"/>
<circle cx="375.9" cy="118.1" r="5.6" fill="none" stroke="#3A3A36" stroke-opacity="0.6" stroke-width="1.6"/>
<circle cx="458.7" cy="348.3" r="6.7" fill="none" stroke="#3A3A36" stroke-opacity="0.6" stroke-width="1.6"/>
<circle cx="655.2" cy="183.0" r="5.8" fill="none" stroke="#3A3A36" stroke-opacity="0.6" stroke-width="1.6"/>
<circle cx="194.0" cy="109.8" r="4.9" fill="none" stroke="#3A3A36" stroke-opacity="0.6" stroke-width="1.6"/>
<circle cx="877.0" cy="173.4" r="11.6" fill="#B4E01B"/>
<circle cx="862.9" cy="199.6" r="4.6" fill="none" stroke="#3A3A36" stroke-opacity="0.6" stroke-width="1.6"/>
</svg>